HIERARCHY
ROOT hip
{
	OFFSET 0.000000 0.000000 0.000000
	CHANNELS 6 Xposition Yposition Zposition Xrotation Zrotation Yrotation 
	JOINT abdomen
	{
		OFFSET 0.000000 3.422050 0.000000
		CHANNELS 3 Xrotation Zrotation Yrotation 
		JOINT chest
		{
			OFFSET 0.000000 8.486693 -0.684411
			CHANNELS 3 Xrotation Zrotation Yrotation 
			JOINT neck
			{
				OFFSET 0.000000 10.266162 -0.273764
				CHANNELS 3 Xrotation Zrotation Yrotation 
				JOINT head
				{
					OFFSET 0.000000 3.148285 0.000000
					CHANNELS 3 Xrotation Zrotation Yrotation 
					End Site
					{
						OFFSET 0.000000 3.148289 0.000000
					}
				}
			}
			JOINT lCollar
			{
				OFFSET 3.422053 6.707223 -0.821293
				CHANNELS 3 Yrotation Zrotation Xrotation 
				JOINT lShldr
				{
					OFFSET 3.285171 0.000000 0.000000
					CHANNELS 3 Zrotation Yrotation Xrotation 
					JOINT lForeArm
					{
						OFFSET 10.129278 0.000000 0.000000
						CHANNELS 3 Yrotation Zrotation Xrotation 
						JOINT lHand
						{
							OFFSET 8.486692 0.000000 0.000000
							CHANNELS 3 Zrotation Yrotation Xrotation 
							End Site
							{
								OFFSET 4.106464 0.000000 0.000000
							}
						}
					}
				}
			}
			JOINT rCollar
			{
				OFFSET -3.558935 6.707223 -0.821293
				CHANNELS 3 Yrotation Zrotation Xrotation 
				JOINT rShldr
				{
					OFFSET -3.148289 0.000000 0.000000
					CHANNELS 3 Zrotation Yrotation Xrotation 
					JOINT rForeArm
					{
						OFFSET -10.266159 0.000000 0.000000
						CHANNELS 3 Yrotation Zrotation Xrotation 
						JOINT rHand
						{
							OFFSET -8.349810 0.000000 0.000000
							CHANNELS 3 Zrotation Yrotation Xrotation 
							End Site
							{
								OFFSET -4.106464 0.000000 0.000000
							}
						}
					}
				}
			}
		}
	}
	JOINT lThigh
	{
		OFFSET 5.338403 -1.642589 1.368821
		CHANNELS 3 Xrotation Zrotation Yrotation 
		JOINT lShin
		{
			OFFSET -2.053232 -20.121670 0.000000
			CHANNELS 3 Xrotation Zrotation Yrotation 
			JOINT lFoot
			{
				OFFSET 0.000000 -19.300380 -1.231939
				CHANNELS 3 Xrotation Yrotation Zrotation 
				End Site
				{
					OFFSET 0.000000 -2.463878 4.653993
				}
			}
		}
	}
	JOINT rThigh
	{
		OFFSET -5.338403 -1.642589 1.368821
		CHANNELS 3 Xrotation Zrotation Yrotation 
		JOINT rShin
		{
			OFFSET 2.053232 -20.121670 0.000000
			CHANNELS 3 Xrotation Zrotation Yrotation 
			JOINT rFoot
			{
				OFFSET 0.000000 -19.300380 -1.231939
				CHANNELS 3 Xrotation Yrotation Zrotation 
				End Site
				{
					OFFSET 0.000000 -2.463878 4.653993
				}
			}
		}
	}
}
MOTION
Frames: 11
Frame Time: 0.049897
0.000000 43.528500 0.000000 0.000000 0.000000 0.000000 0.000000 0.000000 0.000000 0.000000 0.000000 0.000000 0.000000 0.000000 0.000000 0.000000 0.000000 0.000000 0.000000 0.000000 0.000000 0.000000 0.000000 0.000000 0.000000 0.000000 0.000000 0.000000 0.000000 0.000000 0.000000 0.000000 0.000000 0.000000 0.000000 0.000000 0.000000 0.000000 0.000000 0.000000 0.000000 0.000000 0.000000 0.000000 0.000000 0.000000 0.000000 0.000000 0.000000 0.000000 0.000000 0.000000 0.000000 0.000000 0.000000 0.000000 0.000000 0.000000 0.000000 0.000000 
-8.803955 5.672379 -8.004955 89.998253 0.008743 -90.001755 12.009780 25.447060 7.975711 15.309752 23.908581 15.445445 -0.787456 27.167532 -7.940506 -1.744075 0.843866 -29.285133 27.177269 1.638895 0.148955 -16.998259 -25.786770 37.311920 -92.920647 44.070850 41.783367 17.528542 11.809549 1.085381 -2.852946 18.675827 8.891197 32.910336 -41.523293 -55.447468 -26.667572 36.051979 -0.540612 27.519379 -2.127767 -2.525170 -66.800827 3.254661 21.708891 57.479355 11.403553 -3.069615 19.791872 -4.948049 -4.014427 -95.633453 -1.197911 26.017963 62.362942 43.664879 -14.846286 6.351855 17.586760 16.630379 
-8.803955 5.672379 -8.118430 89.999023 -0.822411 -90.002495 12.840998 25.447058 7.975760 15.802809 23.833542 14.341850 -1.086146 26.780346 -7.997813 -2.135549 0.830964 -29.283979 28.861191 2.031085 0.148369 -16.998259 -25.786770 37.311920 -92.286606 44.123203 41.338963 17.528542 11.809549 1.085381 -0.711687 16.619896 7.947410 33.109081 -41.970028 -55.450275 -29.667620 37.171440 1.621214 26.137377 -2.157153 -2.568953 -66.268684 3.185210 21.614550 57.918358 11.504648 -2.987663 19.637991 -4.854151 -4.139902 -95.165802 -0.972463 26.273956 62.394238 43.671295 -14.824681 6.238107 17.235016 16.872568 
-8.803955 5.672378 -8.231905 89.999809 -1.654271 -90.003258 13.672915 25.447048 7.975806 16.298243 23.767044 13.235584 -1.383745 26.392433 -8.052734 -2.527333 0.818061 -29.282740 30.551823 2.424545 0.136181 -16.998259 -25.786770 37.311924 -91.651329 44.172058 40.893299 17.528542 11.809549 1.085381 1.386487 14.518277 7.087701 33.309326 -42.416882 -55.455196 -32.769806 38.199211 3.891128 24.752092 -2.187659 -2.612116 -65.736275 3.116613 21.519547 58.357750 11.605142 -2.904870 19.484333 -4.759913 -4.265114 -94.696960 -0.749026 26.531870 62.425560 43.677704 -14.803073 6.126103 16.882746 17.113625 
-8.803955 5.672378 -8.345380 90.000603 -2.486753 -90.004044 14.505452 25.447046 7.975855 16.795782 23.709211 12.126983 -1.680280 26.003822 -8.105288 -2.919419 0.805156 -29.281410 32.248589 2.818755 0.112276 -16.998259 -25.786770 37.311920 -91.014893 44.217358 40.446442 17.528542 11.809549 1.085381 3.444492 12.376659 6.310983 33.511116 -42.863827 -55.462284 -35.968166 39.127724 6.263185 23.363934 -2.219266 -2.654617 -65.203606 3.048877 21.423876 58.797562 11.705035 -2.821245 19.330893 -4.665337 -4.390060 -94.226997 -0.527625 26.791697 62.456882 43.684109 -14.781455 6.015831 16.529957 17.353563 
-8.803955 5.672378 -8.458855 90.001411 -3.319753 -90.004822 15.338517 25.447041 7.975902 17.295126 23.660114 11.016359 -1.975777 25.614544 -8.155495 -3.311795 0.792251 -29.279980 33.950901 3.213188 0.076566 -16.998259 -25.786770 37.311920 -90.377373 44.259098 39.998486 17.528538 11.809548 1.085380 5.465429 10.200818 5.616081 33.714520 -43.310863 -55.471607 -39.254448 39.950001 8.729140 21.973291 -2.251951 -2.696414 -64.670723 2.982016 21.327572 59.237759 11.804315 -2.736796 19.177677 -4.570423 -4.514740 -93.755882 -0.308297 27.053394 62.488213 43.690506 -14.759832 5.907280 16.176672 17.592396 
-8.803955 5.672378 -8.572330 90.002235 -4.153201 -90.005615 16.172022 25.447031 7.975949 17.795984 23.619837 9.904046 -2.270260 25.224609 -8.203370 -3.704457 0.779347 -29.278477 35.658154 3.607306 0.028992 -16.998259 -25.786770 37.311920 -89.738869 44.297264 39.549534 17.528542 11.809549 1.085381 7.452534 7.996587 5.001772 33.919548 -43.757938 -55.483170 -42.617966 40.659794 11.278366 20.580572 -2.285691 -2.737466 -64.137611 2.916033 21.230616 59.678322 11.902967 -2.651525 19.024681 -4.475174 -4.639154 -93.283669 -0.091079 27.316961 62.519550 43.696896 -14.738199 5.800438 15.822908 17.830145 
-8.803955 5.672377 -8.685805 90.003067 -4.986998 -90.006432 17.005882 25.447027 7.975998 18.298071 23.588451 8.790381 -2.563756 24.834057 -8.248930 -4.097394 0.766444 -29.276878 37.369713 4.000569 -0.030476 -16.998257 -25.786766 37.311920 -89.099525 44.331867 39.099693 17.528542 11.809549 1.085381 9.409139 5.769802 4.466823 34.126308 -44.205063 -55.497089 -46.045845 41.251892 13.897953 19.186184 -2.320459 -2.777733 -63.604336 2.850947 21.133041 60.119251 12.000992 -2.565441 18.871912 -4.379592 -4.763299 -92.810364 0.124008 27.582365 62.550888 43.703262 -14.716557 5.695293 15.468686 18.066826 
-8.803955 5.672377 -8.799280 90.003914 -5.821063 -90.007248 17.840010 25.447025 7.976048 18.801058 23.565987 7.675694 -2.856290 24.442907 -8.292193 -4.490594 0.753544 -29.275196 39.084965 4.392433 -0.101837 -16.998259 -25.786770 37.311920 -88.459381 44.362858 38.649029 17.528543 11.809550 1.085381 11.338642 3.526294 4.010028 34.334812 -44.652180 -55.513355 -48.960350 42.391613 15.973811 17.790546 -2.356230 -2.817178 -63.070904 2.786758 21.034859 60.560543 12.098372 -2.478548 18.719364 -4.283679 -4.887175 -92.335968 0.336922 27.849571 62.582237 43.709621 -14.694904 5.591834 15.114017 18.302446 
-8.803955 5.672377 -8.912755 90.004776 -6.655303 -90.008095 18.674309 25.447018 7.976094 19.304663 23.552498 6.560328 -3.147886 24.051168 -8.333173 -4.884052 0.740647 -29.273413 40.803261 4.782359 -0.185059 -16.998259 -25.786772 37.311924 -87.818535 44.390244 38.197651 17.528543 11.809550 1.085381 13.244489 1.271838 3.630240 34.545147 -45.099289 -55.532070 -51.989315 43.452065 18.169273 16.394060 -2.392971 -2.855762 -62.537350 2.723482 20.936081 61.002155 12.195099 -2.390854 18.567043 -4.187437 -5.010781 -91.860542 0.547636 28.118582 62.613594 43.715992 -14.673258 5.490049 14.758921 18.537027 
-8.803955 5.672377 -9.026230 90.005661 -7.489635 -90.008957 19.508698 25.447006 7.976140 19.808569 23.547993 5.444618 -3.438568 23.658888 -8.371890 -5.277760 0.727755 -29.271547 42.523952 5.169799 -0.280079 -16.998259 -25.786770 37.311920 -87.177162 44.414051 37.745693 17.528543 11.809551 1.085381 15.130119 -0.987870 3.326380 34.757366 -45.546371 -55.553280 -55.129482 44.425823 20.481155 14.997141 -2.430653 -2.893451 -62.003666 2.661121 20.836712 61.444088 12.291164 -2.302364 18.414940 -4.090866 -5.134114 -91.384056 0.756121 28.389339 62.644958 43.722340 -14.651587 5.389930 14.403423 18.770596 
